<svg xmlns="http://www.w3.org/2000/svg" version="1.1" xmlns:xlink="http://www.w3.org/1999/xlink" xmlns:svgjs="http://svgjs.com/svgjs" width="192" height="192" x="0" y="0" viewBox="0 0 512 512" style="enable-background:new 0 0 512 512" xml:space="preserve" class=""><g><path d="m441.4 140.2v338.8c0 18.2-14.8 33-33 33h-304.8c-18.2 0-33-14.8-33-33v-446c0-18.2 14.8-33 33-33h197.6z" fill="#744ABD" data-original="#744abd" class=""></path><g><path d="m187 257.7h163.8v21.1h-163.8z" fill="#FFFFFF" data-original="#ffffff"></path></g><circle cx="149.8" cy="268.2" fill="#FFFFFF" r="11.8" data-original="#ffffff"></circle><g><path d="m187 317.7h163.8v21.1h-163.8z" fill="#FFFFFF" data-original="#ffffff"></path></g><circle cx="149.8" cy="328.2" fill="#FFFFFF" r="11.8" data-original="#ffffff"></circle><g><path d="m187 377.7h163.8v21.1h-163.8z" fill="#FFFFFF" data-original="#ffffff"></path></g><circle cx="149.8" cy="388.2" fill="#FFFFFF" r="11.8" data-original="#ffffff"></circle><path d="m320.3 135.4 121.1 98.1v-92.1l-68.7-39.9z" opacity=".19" fill="#000000" data-original="#000000"></path><path d="m441.4 140.2h-107.2c-18.2 0-33-14.8-33-33v-107.2z" fill="#B7A2DD" data-original="#b7a2dd" class=""></path></g></svg>